# xmcd
#
# Track frame offsets:
#	150
#	10328
#	27364
#	40694
#	53926
#	71218
#	92509
#	105977
#	118804
#	134999
#	149972
#	164827
#
# Disc length: 2352 seconds
#
# Revision: 1
# Processed by: cddbd v1.5.2PL0 Copyright (c) Steve Scherf et al.
# Submitted via: audiograbber 1.83.01
#
DISCID=b9092e0c
DTITLE=John Williamson - The Big Red
DYEAR=2012
DGENRE=Country
TTITLE0=Kissing On A City Corner
TTITLE1=The Big Red
TTITLE2=Marree Girl
TTITLE3=Prairie Hotel Parachilna
TTITLE4=Rescue Me
TTITLE5=Hang My Hat In Queensland
TTITLE6=Look Out Cunnamulla
TTITLE7=Mates Around The Fire
TTITLE8=The Weight Of A Man
TTITLE9=I'm A Basher
TTITLE10=Movie Star
TTITLE11=The Men Of League
EXTD=
EXTT0=
EXTT1=
EXTT2=
EXTT3=
EXTT4=
EXTT5=
EXTT6=
EXTT7=
EXTT8=
EXTT9=
EXTT10=
EXTT11=
PLAYORDER=
